<svg width="32" height="32" viewBox="0 0 32 32" fill="none" xmlns="http://www.w3.org/2000/svg">
<circle cx="16" cy="16" r="15.5" fill="white" stroke="#202020"/>
<path d="M18.8111 10.641C18.8111 10.8386 18.8004 11.0361 18.7808 11.2315C18.7897 11.1529 18.7986 11.0721 18.8057 10.9935C18.7631 11.3841 18.6813 11.7636 18.5621 12.1273C18.5853 12.0554 18.6102 11.9836 18.6333 11.9118C18.5141 12.2665 18.3612 12.5988 18.1745 12.9041L18.2866 12.7223C18.1016 13.0231 17.8865 13.2948 17.6482 13.5283L17.7923 13.3868C17.5504 13.6203 17.2873 13.8156 17.0064 13.9661C17.0633 13.9369 17.1202 13.9055 17.1771 13.8763C16.889 14.0267 16.5885 14.13 16.2792 14.1839C16.3414 14.1726 16.4054 14.1614 16.4676 14.1524C16.1565 14.2041 15.8435 14.2041 15.5324 14.1524C15.5946 14.1636 15.6586 14.1749 15.7209 14.1839C15.4115 14.13 15.111 14.0267 14.8229 13.8763C14.8798 13.9055 14.9367 13.9369 14.9936 13.9661C14.7127 13.8156 14.4496 13.6226 14.2077 13.3868L14.3518 13.5283C14.1135 13.2948 13.8984 13.0231 13.7135 12.7223L13.8255 12.9041C13.6406 12.5988 13.4859 12.2665 13.3667 11.9118C13.3899 11.9836 13.4147 12.0554 13.4379 12.1273C13.3187 11.7636 13.2369 11.3841 13.1943 10.9935C13.2032 11.0721 13.2121 11.1529 13.2192 11.2315C13.1783 10.8386 13.1783 10.4434 13.2192 10.0505C13.2103 10.1291 13.2014 10.2099 13.1943 10.2885C13.2369 9.89786 13.3187 9.51843 13.4379 9.15471C13.4147 9.22656 13.3899 9.2984 13.3667 9.37025C13.4859 9.01551 13.6388 8.68323 13.8255 8.37789L13.7135 8.55975C13.8984 8.2589 14.1135 7.98723 14.3518 7.75374L14.2077 7.89518C14.4496 7.66169 14.7127 7.46636 14.9936 7.31593C14.9367 7.34512 14.8798 7.37655 14.8229 7.40574C15.111 7.25532 15.4115 7.15204 15.7209 7.09815C15.6586 7.10938 15.5946 7.12061 15.5324 7.12959C15.8435 7.07795 16.1565 7.07795 16.4676 7.12959C16.4054 7.11836 16.3414 7.10713 16.2792 7.09815C16.5885 7.15204 16.889 7.25532 17.1771 7.40574C17.1202 7.37655 17.0633 7.34512 17.0064 7.31593C17.2873 7.46636 17.5504 7.65944 17.7923 7.89518L17.6482 7.75374C17.8865 7.98723 18.1016 8.2589 18.2866 8.55975L18.1745 8.37789C18.3595 8.68323 18.5141 9.01551 18.6333 9.37025C18.6102 9.2984 18.5853 9.22656 18.5621 9.15471C18.6813 9.51843 18.7631 9.89786 18.8057 10.2885C18.7968 10.2099 18.788 10.1291 18.7808 10.0505C18.8004 10.2459 18.8093 10.4434 18.8111 10.641C18.8128 11.1102 19.1364 11.5615 19.5223 11.5391C19.9063 11.5166 20.2353 11.1439 20.2335 10.641C20.2299 9.56558 19.9739 8.46545 19.4725 7.58984C19.3374 7.3541 19.1933 7.12285 19.0333 6.91405C18.8715 6.70301 18.6937 6.52115 18.5088 6.34378C18.1728 6.02048 17.7976 5.7825 17.3993 5.59839C15.7938 4.85525 13.8575 5.51757 12.7711 7.18796C12.6217 7.41697 12.4795 7.65495 12.3586 7.9109C12.2377 8.1646 12.1435 8.43402 12.0563 8.70793C11.8928 9.21533 11.8092 9.75417 11.7754 10.2997C11.7096 11.3684 11.9301 12.4843 12.371 13.4003C12.796 14.2849 13.4379 15.0437 14.1882 15.4726C14.4087 15.5983 14.6345 15.715 14.8692 15.7981C15.1021 15.8789 15.3386 15.9238 15.5786 15.9598C16.016 16.0249 16.4623 15.98 16.8944 15.87C18.5355 15.4479 19.9099 13.663 20.1642 11.5683C20.2015 11.2629 20.2299 10.9576 20.2299 10.6477C20.2317 10.1785 19.901 9.72723 19.5187 9.74968C19.1347 9.76539 18.8111 10.1381 18.8111 10.641ZM21.1705 24.6799H12.0474C11.6438 24.6799 11.2402 24.6844 10.8366 24.6799C10.7922 24.6799 10.7477 24.6754 10.705 24.6687C10.7673 24.6799 10.8313 24.6912 10.8935 24.7001C10.8224 24.6867 10.7548 24.662 10.689 24.6283C10.7459 24.6575 10.8028 24.6889 10.8597 24.7181C10.7886 24.6799 10.7228 24.6305 10.6606 24.5699L10.8046 24.7114C10.7513 24.6552 10.7015 24.5946 10.6588 24.5273L10.7708 24.7091C10.7228 24.6305 10.6855 24.5475 10.6535 24.4577C10.6766 24.5295 10.7015 24.6014 10.7246 24.6732C10.6979 24.5901 10.6801 24.5026 10.6677 24.415C10.6766 24.4936 10.6855 24.5744 10.6926 24.653C10.6641 24.3813 10.6837 24.094 10.6837 23.82V22.8591C10.6837 22.6189 10.6944 22.3809 10.7193 22.1429C10.7104 22.2215 10.7015 22.3023 10.6944 22.3809C10.7441 21.9206 10.8402 21.4694 10.9842 21.0405C10.9611 21.1124 10.9362 21.1842 10.9131 21.2561C11.0517 20.8475 11.2295 20.4635 11.4447 20.1111L11.3327 20.2929C11.5478 19.9449 11.795 19.6306 12.0723 19.3589L11.9283 19.5004C12.2075 19.2287 12.5115 19.0042 12.8351 18.8291C12.7782 18.8583 12.7213 18.8897 12.6644 18.9189C13.004 18.7393 13.3596 18.6158 13.7259 18.5529C13.6637 18.5641 13.5997 18.5754 13.5374 18.5843C13.8006 18.5417 14.0619 18.5394 14.3269 18.5394H17.5807C17.874 18.5394 18.1656 18.5372 18.459 18.5843C18.3968 18.5731 18.3328 18.5619 18.2705 18.5529C18.635 18.6158 18.9924 18.737 19.332 18.9189C19.2751 18.8897 19.2182 18.8583 19.1613 18.8291C19.4849 19.0042 19.789 19.2287 20.0681 19.5004L19.9241 19.3589C20.1997 19.6306 20.4486 19.9427 20.6638 20.2929L20.5518 20.1111C20.7669 20.4635 20.9447 20.8475 21.0834 21.2561C21.0603 21.1842 21.0354 21.1124 21.0123 21.0405C21.1545 21.4694 21.2523 21.9184 21.3021 22.3809C21.2932 22.3023 21.2843 22.2215 21.2772 22.1429C21.311 22.4819 21.3128 22.8187 21.3128 23.16V24.2713C21.3128 24.3993 21.3163 24.5273 21.3039 24.653C21.3128 24.5744 21.3217 24.4936 21.3288 24.415C21.3181 24.5048 21.2985 24.5901 21.2719 24.6732C21.295 24.6014 21.3199 24.5295 21.343 24.4577C21.3128 24.5475 21.2736 24.6305 21.2256 24.7091L21.3377 24.5273C21.2932 24.5946 21.2452 24.6575 21.1919 24.7114L21.3359 24.5699C21.2736 24.6305 21.2079 24.6777 21.1367 24.7181C21.1936 24.6889 21.2505 24.6575 21.3074 24.6283C21.2416 24.662 21.1723 24.6844 21.103 24.7001C21.1652 24.6889 21.2292 24.6777 21.2914 24.6687C21.2523 24.6754 21.2114 24.6777 21.1705 24.6799C20.9874 24.6822 20.7989 24.7787 20.6673 24.9426C20.5447 25.0975 20.4504 25.3535 20.4593 25.578C20.4771 26.0585 20.7722 26.4828 21.1705 26.4761C21.8622 26.4626 22.4703 25.8923 22.673 25.0549C22.753 24.7226 22.7352 24.3656 22.7352 24.0244C22.7352 23.243 22.7547 22.4685 22.6481 21.6939C22.4916 20.5601 22.04 19.4936 21.4212 18.6562C20.8025 17.8188 19.9703 17.2036 19.0902 16.9297C18.5853 16.7725 18.0767 16.7478 17.5611 16.7478H14.4069C13.8788 16.7478 13.3543 16.7792 12.8404 16.9521C11.9674 17.244 11.146 17.8659 10.5397 18.7101C9.92803 19.561 9.4853 20.6297 9.34128 21.7702C9.24526 22.5358 9.26482 23.3037 9.26482 24.076C9.26482 24.4307 9.24882 24.8012 9.35017 25.1402C9.48174 25.5758 9.69155 25.9193 9.99915 26.1775C10.2392 26.3773 10.5432 26.4738 10.8277 26.4783C10.9664 26.4805 11.1051 26.4783 11.2438 26.4783H21.1723C21.5439 26.4783 21.9013 26.0652 21.8835 25.5802C21.8657 25.0908 21.5706 24.6799 21.1705 24.6799Z" fill="black"/>
</svg>
