<svg width="24" height="24" viewBox="0 0 24 24" fill="none" xmlns="http://www.w3.org/2000/svg">
<path d="M1.9751 21V18H5.0751L2.5251 9.65002C2.0751 9.40002 1.70426 9.03336 1.4126 8.55002C1.12093 8.06669 0.975098 7.55002 0.975098 7.00002C0.975098 6.16669 1.26676 5.45836 1.8501 4.87502C2.43343 4.29169 3.14176 4.00002 3.9751 4.00002C4.6251 4.00002 5.20426 4.18752 5.7126 4.56252C6.22093 4.93752 6.5751 5.41669 6.7751 6.00002H9.9751V5.00002C9.9751 4.71669 10.0709 4.47919 10.2626 4.28752C10.4543 4.09586 10.6918 4.00002 10.9751 4.00002C11.1251 4.00002 11.2709 4.03336 11.4126 4.10002C11.5543 4.16669 11.6751 4.26669 11.7751 4.40002L13.4751 2.80002C13.6251 2.65002 13.8043 2.55419 14.0126 2.51252C14.2209 2.47086 14.4251 2.50002 14.6251 2.60002L18.5251 4.40002C18.7251 4.50002 18.8626 4.64586 18.9376 4.83752C19.0126 5.02919 19.0084 5.21669 18.9251 5.40002C18.8251 5.60002 18.6793 5.72919 18.4876 5.78752C18.2959 5.84586 18.1084 5.83336 17.9251 5.75002L14.3251 4.10002L11.9751 6.30002V7.70002L14.3251 9.85002L17.9251 8.20002C18.1084 8.11669 18.3001 8.10836 18.5001 8.17502C18.7001 8.24169 18.8418 8.36669 18.9251 8.55002C19.0251 8.75002 19.0334 8.94169 18.9501 9.12502C18.8668 9.30836 18.7251 9.45002 18.5251 9.55002L14.6251 11.4C14.4251 11.5 14.2209 11.5292 14.0126 11.4875C13.8043 11.4459 13.6251 11.35 13.4751 11.2L11.7751 9.60002C11.6751 9.70002 11.5543 9.79169 11.4126 9.87502C11.2709 9.95836 11.1251 10 10.9751 10C10.6918 10 10.4543 9.90419 10.2626 9.71252C10.0709 9.52086 9.9751 9.28336 9.9751 9.00002V8.00002H6.7751C6.7251 8.13336 6.67093 8.25836 6.6126 8.37502C6.55426 8.49169 6.4751 8.61669 6.3751 8.75002L11.3751 18H14.9751V21H1.9751ZM3.9751 8.00002C4.25843 8.00002 4.49593 7.90419 4.6876 7.71252C4.87926 7.52086 4.9751 7.28336 4.9751 7.00002C4.9751 6.71669 4.87926 6.47919 4.6876 6.28752C4.49593 6.09586 4.25843 6.00002 3.9751 6.00002C3.69176 6.00002 3.45426 6.09586 3.2626 6.28752C3.07093 6.47919 2.9751 6.71669 2.9751 7.00002C2.9751 7.28336 3.07093 7.52086 3.2626 7.71252C3.45426 7.90419 3.69176 8.00002 3.9751 8.00002ZM7.1251 18H9.0751L4.7751 10H4.6751L7.1251 18Z" fill="black"/>
</svg>
