<svg width="24" height="24" viewBox="0 0 24 24" fill="none" xmlns="http://www.w3.org/2000/svg">
<g clip-path="url(#clip0_2752_546)">
<path d="M11.8789 20.001C11.9456 20.001 12.0122 19.9843 12.0789 19.951C12.1456 19.9176 12.1956 19.8843 12.2289 19.851L20.4289 11.651C20.6289 11.451 20.7747 11.226 20.8664 10.976C20.9581 10.726 21.0039 10.476 21.0039 10.226C21.0039 9.95931 20.9581 9.70514 20.8664 9.46348C20.7747 9.22181 20.6289 9.00931 20.4289 8.82598L16.1789 4.57598C15.9956 4.37598 15.7831 4.23014 15.5414 4.13848C15.2997 4.04681 15.0456 4.00098 14.7789 4.00098C14.5289 4.00098 14.2789 4.04681 14.0289 4.13848C13.7789 4.23014 13.5539 4.37598 13.3539 4.57598L13.0789 4.85098L14.9289 6.72598C15.1789 6.95931 15.3622 7.22598 15.4789 7.52598C15.5956 7.82598 15.6539 8.14264 15.6539 8.47598C15.6539 9.17598 15.4164 9.76348 14.9414 10.2385C14.4664 10.7135 13.8789 10.951 13.1789 10.951C12.8456 10.951 12.5247 10.8926 12.2164 10.776C11.9081 10.6593 11.6372 10.4843 11.4039 10.251L9.52891 8.40098L5.15391 12.776C5.10391 12.826 5.06641 12.8801 5.04141 12.9385C5.01641 12.9968 5.00391 13.0593 5.00391 13.126C5.00391 13.2593 5.05391 13.3801 5.15391 13.4885C5.25391 13.5968 5.37058 13.651 5.50391 13.651C5.57058 13.651 5.63725 13.6343 5.70391 13.601C5.77058 13.5676 5.82058 13.5343 5.85391 13.501L9.25391 10.101L10.6539 11.501L7.27891 14.901C7.22891 14.951 7.19141 15.0051 7.16641 15.0635C7.14141 15.1218 7.12891 15.1843 7.12891 15.251C7.12891 15.3843 7.17891 15.501 7.27891 15.601C7.37891 15.701 7.49558 15.751 7.62891 15.751C7.69558 15.751 7.76225 15.7343 7.82891 15.701C7.89558 15.6676 7.94558 15.6343 7.97891 15.601L11.3789 12.226L12.7789 13.626L9.40391 17.026C9.35391 17.0593 9.31641 17.1093 9.29141 17.176C9.26641 17.2426 9.25391 17.3093 9.25391 17.376C9.25391 17.5093 9.30391 17.626 9.40391 17.726C9.50391 17.826 9.62058 17.876 9.75391 17.876C9.82058 17.876 9.88308 17.8635 9.94141 17.8385C9.99975 17.8135 10.0539 17.776 10.1039 17.726L13.5039 14.351L14.9039 15.751L11.5039 19.151C11.4539 19.201 11.4164 19.2551 11.3914 19.3135C11.3664 19.3718 11.3539 19.4343 11.3539 19.501C11.3539 19.6343 11.4081 19.751 11.5164 19.851C11.6247 19.951 11.7456 20.001 11.8789 20.001ZM11.8539 22.001C11.2372 22.001 10.6914 21.7968 10.2164 21.3885C9.74141 20.9801 9.46224 20.4676 9.37891 19.851C8.81224 19.7676 8.33724 19.5343 7.95391 19.151C7.57058 18.7676 7.33724 18.2926 7.25391 17.726C6.68724 17.6426 6.21641 17.4051 5.84141 17.0135C5.46641 16.6218 5.23725 16.151 5.15391 15.601C4.52058 15.5176 4.00391 15.2426 3.60391 14.776C3.20391 14.3093 3.00391 13.7593 3.00391 13.126C3.00391 12.7926 3.06641 12.4718 3.19141 12.1635C3.31641 11.8551 3.49558 11.5843 3.72891 11.351L9.52891 5.57598L12.8039 8.85098C12.8372 8.90098 12.8872 8.93848 12.9539 8.96348C13.0206 8.98848 13.0872 9.00098 13.1539 9.00098C13.3039 9.00098 13.4289 8.95514 13.5289 8.86348C13.6289 8.77181 13.6789 8.65098 13.6789 8.50098C13.6789 8.43431 13.6664 8.36764 13.6414 8.30098C13.6164 8.23431 13.5789 8.18431 13.5289 8.15098L9.95391 4.57598C9.77058 4.37598 9.55808 4.23014 9.31641 4.13848C9.07475 4.04681 8.82058 4.00098 8.55391 4.00098C8.30391 4.00098 8.05391 4.04681 7.80391 4.13848C7.55391 4.23014 7.32891 4.37598 7.12891 4.57598L3.60391 8.12598C3.45391 8.27598 3.32891 8.45098 3.22891 8.65098C3.12891 8.85098 3.06225 9.05098 3.02891 9.25098C2.99558 9.45098 2.99558 9.65514 3.02891 9.86348C3.06225 10.0718 3.12891 10.2676 3.22891 10.451L1.77891 11.901C1.49558 11.5176 1.28725 11.0968 1.15391 10.6385C1.02058 10.1801 0.970578 9.71764 1.00391 9.25098C1.03725 8.78431 1.15391 8.33014 1.35391 7.88848C1.55391 7.44681 1.82891 7.05098 2.17891 6.70098L5.70391 3.17598C6.10391 2.79264 6.54975 2.50098 7.04141 2.30098C7.53308 2.10098 8.03725 2.00098 8.55391 2.00098C9.07058 2.00098 9.57475 2.10098 10.0664 2.30098C10.5581 2.50098 10.9956 2.79264 11.3789 3.17598L11.6539 3.45098L11.9289 3.17598C12.3289 2.79264 12.7747 2.50098 13.2664 2.30098C13.7581 2.10098 14.2622 2.00098 14.7789 2.00098C15.2956 2.00098 15.7997 2.10098 16.2914 2.30098C16.7831 2.50098 17.2206 2.79264 17.6039 3.17598L21.8289 7.40098C22.2122 7.78431 22.5039 8.22598 22.7039 8.72598C22.9039 9.22598 23.0039 9.73431 23.0039 10.251C23.0039 10.7676 22.9039 11.2718 22.7039 11.7635C22.5039 12.2551 22.2122 12.6926 21.8289 13.076L13.6289 21.251C13.3956 21.4843 13.1247 21.6676 12.8164 21.801C12.5081 21.9343 12.1872 22.001 11.8539 22.001Z" fill="#202020"/>
</g>
<defs>
<clipPath id="clip0_2752_546">
<rect width="24" height="24" fill="white" transform="translate(0.00390625 0.000976562)"/>
</clipPath>
</defs>
</svg>
