<svg width="56" height="75" viewBox="0 0 56 75" fill="none" xmlns="http://www.w3.org/2000/svg">
<path d="M3.87826 74.3128V66.9573H13.9549L5.32659 28.407C3.86937 27.4439 2.70826 26.066 1.84326 24.2733C0.9777 22.4814 0.544922 20.4208 0.544922 18.0915C0.544922 14.9388 1.35687 12.2532 2.98076 10.0347C4.60465 7.81625 6.57048 6.70702 8.87826 6.70702C10.9166 6.70702 12.6655 7.56086 14.1249 9.26854C15.5844 10.9762 16.5619 13.1582 17.0574 15.8146H29.2624V6.70702H32.1924L32.4424 9.57933L39.9874 0.104004L55.8458 10.2966L54.6149 13.8519L40.5574 4.8855L32.5958 14.9039V21.2792L40.5574 31.0699L54.6541 22.1023L55.8849 25.6577L39.9874 35.9038L32.4424 26.6026L32.1349 29.4761H29.2624V20.3684H17.0574C16.8908 21.3839 16.6141 22.3907 16.2274 23.3888C15.8408 24.3876 15.4166 25.2198 14.9549 25.8854L31.1091 66.9573H43.8783V74.3128H3.87826ZM8.87826 24.9222C10.2499 24.9222 11.426 24.2521 12.4066 22.9117C13.3877 21.5722 13.8783 19.9654 13.8783 18.0915C13.8783 16.2169 13.3877 14.6098 12.4066 13.2702C11.426 11.9306 10.2499 11.2608 8.87826 11.2608C7.50659 11.2608 6.3302 11.9306 5.34909 13.2702C4.36853 14.6098 3.87826 16.2169 3.87826 18.0915C3.87826 19.9654 4.36853 21.5722 5.34909 22.9117C6.3302 24.2521 7.50659 24.9222 8.87826 24.9222ZM17.4549 66.9573H27.2883L12.1858 28.5994C11.8441 28.8916 11.3613 29.1398 10.7374 29.344C10.1135 29.5482 9.54492 29.5922 9.03159 29.4761L17.4549 66.9573Z" fill="#0EE20E"/>
</svg>
